<?xml version="1.0" encoding="UTF-8"?>
<!DOCTYPE svg PUBLIC "-//W3C//DTD SVG 1.1//EN" "http://www.w3.org/Graphics/SVG/1.1/DTD/svg11.dtd">
<svg xmlns="http://www.w3.org/2000/svg" version="1.1" width="500px" height="500px" style="shape-rendering:geometricPrecision; text-rendering:geometricPrecision; image-rendering:optimizeQuality; fill-rule:evenodd; clip-rule:evenodd" xmlns:xlink="http://www.w3.org/1999/xlink">
<g><path style="opacity:1" fill="#000000" d="M -0.5,-0.5 C 166.167,-0.5 332.833,-0.5 499.5,-0.5C 499.5,166.167 499.5,332.833 499.5,499.5C 332.833,499.5 166.167,499.5 -0.5,499.5C -0.5,332.833 -0.5,166.167 -0.5,-0.5 Z"/></g>
<g><path style="opacity:1" fill="#7a6137" d="M 345.5,309.5 C 346.773,307.287 347.773,304.954 348.5,302.5C 378.958,277.883 392.124,245.883 388,206.5C 379.794,165.97 356.294,138.803 317.5,125C 268.58,113.063 229.747,127.563 201,168.5C 192.5,183.167 187.333,198.834 185.5,215.5C 183.81,215.856 182.81,216.856 182.5,218.5C 162.19,185.895 142.356,152.895 123,119.5C 122.5,151.832 122.333,184.165 122.5,216.5C 121.167,216.5 119.833,216.5 118.5,216.5C 118.5,181.167 118.5,145.833 118.5,110.5C 120.144,110.286 121.644,110.62 123,111.5C 142.415,144.665 162.082,177.665 182,210.5C 190.846,158.655 221.012,127.488 272.5,117C 326.89,113.098 365.057,135.932 387,185.5C 400.504,230.657 390.337,269.491 356.5,302C 353.122,305.015 349.456,307.515 345.5,309.5 Z"/></g>
<g><path style="opacity:1" fill="#efefef" d="M 152.5,269.5 C 151.504,284.991 151.17,300.658 151.5,316.5C 159.5,316.5 167.5,316.5 175.5,316.5C 175.5,317.5 175.5,318.5 175.5,319.5C 166.167,319.5 156.833,319.5 147.5,319.5C 147.5,284.833 147.5,250.167 147.5,215.5C 156.833,215.5 166.167,215.5 175.5,215.5C 175.5,216.833 175.5,218.167 175.5,219.5C 167.5,219.5 159.5,219.5 151.5,219.5C 151.5,234.833 151.5,250.167 151.5,265.5C 160.167,265.5 168.833,265.5 177.5,265.5C 177.5,266.833 177.5,268.167 177.5,269.5C 169.167,269.5 160.833,269.5 152.5,269.5 Z"/></g>
<g><path style="opacity:1" fill="#eeedec" d="M 182.5,218.5 C 182.81,216.856 183.81,215.856 185.5,215.5C 195.322,231.806 205.155,248.139 215,264.5C 225,247.833 235,231.167 245,214.5C 247.82,216.125 248.153,218.125 246,220.5C 236.115,236.436 226.615,252.603 217.5,269C 226.868,284.9 236.368,300.733 246,316.5C 246.854,318.607 246.188,319.941 244,320.5C 233.593,305.365 223.926,289.698 215,273.5C 205.415,289.001 196.082,304.668 187,320.5C 185.745,319.789 184.579,318.956 183.5,318C 193.167,301.667 202.833,285.333 212.5,269C 202.099,252.359 192.099,235.526 182.5,218.5 Z"/></g>
<g><path style="opacity:1" fill="#ebebeb" d="M 348.5,302.5 C 347.773,304.954 346.773,307.287 345.5,309.5C 337.908,319.313 327.908,323.146 315.5,321C 302.864,316.247 296.198,307.08 295.5,293.5C 296.833,293.5 298.167,293.5 299.5,293.5C 301.111,310.616 310.445,318.449 327.5,317C 342.703,312.446 348.537,302.28 345,286.5C 342.559,280.392 338.392,275.892 332.5,273C 322.387,272.144 313.053,269.144 304.5,264C 291.172,249.707 291.172,235.374 304.5,221C 314.752,214.459 325.419,213.792 336.5,219C 345.2,225.232 349.533,233.732 349.5,244.5C 347.833,244.5 346.167,244.5 344.5,244.5C 344.537,228.705 336.704,220.038 321,218.5C 307.275,220.059 299.775,227.725 298.5,241.5C 298.638,251.287 302.971,258.454 311.5,263C 319.312,264.869 326.978,267.203 334.5,270C 347.235,277.308 351.902,288.141 348.5,302.5 Z"/></g>
<g><path style="opacity:1" fill="#f8f7f7" d="M 118.5,216.5 C 119.833,216.5 121.167,216.5 122.5,216.5C 122.5,249.833 122.5,283.167 122.5,316.5C 127.833,316.5 133.167,316.5 138.5,316.5C 138.5,317.833 138.5,319.167 138.5,320.5C 131.833,320.5 125.167,320.5 118.5,320.5C 118.5,285.833 118.5,251.167 118.5,216.5 Z"/></g>
<g><path style="opacity:1" fill="#b5b5b5" d="M 279.5,253.5 C 275.545,241.909 270.712,230.575 265,219.5C 264.713,234.848 264.213,250.181 263.5,265.5C 262.566,264.432 262.232,263.099 262.5,261.5C 263.358,245.746 263.691,230.079 263.5,214.5C 271.173,226.513 276.506,239.513 279.5,253.5 Z"/></g>
<g><path style="opacity:1" fill="#2e2e2e" d="M 275.5,286.5 C 275.784,284.585 275.451,282.919 274.5,281.5C 275.002,269.206 274.002,257.039 271.5,245C 271.594,242.046 272.094,241.879 273,244.5C 275.814,258.56 276.647,272.56 275.5,286.5 Z"/></g>
<g><path style="opacity:1" fill="#8c8c8c" d="M 262.5,261.5 C 262.232,263.099 262.566,264.432 263.5,265.5C 262.941,268.516 262.275,271.516 261.5,274.5C 268.91,281.647 272.077,290.314 271,300.5C 270.205,302.901 269.038,305.068 267.5,307C 268.252,307.671 268.586,308.504 268.5,309.5C 268.5,310.167 268.167,310.5 267.5,310.5C 267.322,309.305 266.989,308.138 266.5,307C 272.686,295.514 270.852,285.347 261,276.5C 260.851,271.325 261.351,266.325 262.5,261.5 Z"/></g>
<g><path style="opacity:1" fill="#585858" d="M 152.5,269.5 C 152.5,284.833 152.5,300.167 152.5,315.5C 160.352,315.175 168.018,315.508 175.5,316.5C 167.5,316.5 159.5,316.5 151.5,316.5C 151.17,300.658 151.504,284.991 152.5,269.5 Z"/></g>
<g><path style="opacity:1" fill="#363636" d="M 279.5,253.5 C 284.091,264.561 284.591,275.895 281,287.5C 281.965,276.129 281.465,264.795 279.5,253.5 Z"/></g>
<g><path style="opacity:1" fill="#b2b2b2" d="M 175.5,316.5 C 176.434,317.568 176.768,318.901 176.5,320.5C 166.652,320.827 156.986,320.494 147.5,319.5C 156.833,319.5 166.167,319.5 175.5,319.5C 175.5,318.5 175.5,317.5 175.5,316.5 Z"/></g>
<g><path style="opacity:1" fill="#4f4f4f" d="M 274.5,281.5 C 275.451,282.919 275.784,284.585 275.5,286.5C 274.901,299.861 272.401,312.861 268,325.5C 267.501,320.511 267.334,315.511 267.5,310.5C 268.167,310.5 268.5,310.167 268.5,309.5C 269.302,310.952 269.802,312.618 270,314.5C 272.575,303.64 274.075,292.64 274.5,281.5 Z"/></g>
</svg>